<svg width="30" height="30" viewBox="0 0 30 30" fill="none" xmlns="http://www.w3.org/2000/svg">
<path d="M11.25 5.625C11.25 7.11684 10.6574 8.54758 9.60248 9.60248C8.54758 10.6574 7.11684 11.25 5.625 11.25C4.13316 11.25 2.70242 10.6574 1.64752 9.60248C0.592632 8.54758 0 7.11684 0 5.625C0 4.13316 0.592632 2.70242 1.64752 1.64752C2.70242 0.592632 4.13316 0 5.625 0C7.11684 0 8.54758 0.592632 9.60248 1.64752C10.6574 2.70242 11.25 4.13316 11.25 5.625Z" fill="white"/>
<path d="M16.875 11.25C15.3832 11.25 13.9524 10.6574 12.8975 9.60248C11.8426 8.54758 11.25 7.11684 11.25 5.625C11.25 4.13316 11.8426 2.70242 12.8975 1.64752C13.9524 0.592632 15.3832 0 16.875 0C18.3668 0 19.7976 0.592632 20.8525 1.64752C21.9074 2.70242 22.5 4.13316 22.5 5.625C22.5 7.11684 21.9074 8.54758 20.8525 9.60248C19.7976 10.6574 18.3668 11.25 16.875 11.25Z" fill="white"/>
<path d="M16.875 11H17.8125C18.722 10.9999 19.6006 11.2819 20.2846 11.7935C20.9687 12.3051 21.4115 13.0113 21.5306 13.7808L27.3619 11.5696C27.6473 11.4611 27.96 11.4151 28.2715 11.436C28.583 11.4568 28.8835 11.5438 29.1456 11.6889C29.4078 11.834 29.6232 12.0328 29.7724 12.2671C29.9216 12.5014 29.9999 12.7638 30 13.0304V24.9696C29.9997 25.236 29.9215 25.4982 29.7724 25.7323C29.6233 25.9664 29.408 26.165 29.1461 26.3101C28.8843 26.4552 28.5841 26.5422 28.2728 26.5632C27.9616 26.5842 27.6491 26.5386 27.3638 26.4304L21.5306 24.2192C21.4115 24.9887 20.9687 25.6949 20.2846 26.2065C19.6006 26.7181 18.722 27.0001 17.8125 27H3.75C2.75544 27 1.80161 26.6629 1.09835 26.0627C0.395088 25.4626 0 24.6487 0 23.8V14.2C0 13.3513 0.395088 12.5374 1.09835 11.9373C1.80161 11.3371 2.75544 11 3.75 11H16.875Z" fill="white"/>
</svg>
