<svg width="30" height="31" viewBox="0 0 30 31" fill="none" xmlns="http://www.w3.org/2000/svg">
<path d="M29.9214 27.6336L28.1339 21.3836C28.0226 20.9918 27.7867 20.6469 27.4619 20.4011C27.1372 20.1552 26.7412 20.0218 26.3339 20.0211H3.6589C3.2516 20.0218 2.85563 20.1552 2.53087 20.4011C2.20611 20.6469 1.97023 20.9918 1.8589 21.3836L0.0714022 27.6336C-0.00777815 27.9122 -0.0213168 28.2054 0.0318484 28.4902C0.0850135 28.7749 0.203436 29.0435 0.377827 29.2748C0.552217 29.5061 0.777831 29.6939 1.03697 29.8234C1.29611 29.9528 1.58172 30.0205 1.8714 30.0211H28.1214C28.4111 30.0205 28.6967 29.9528 28.9558 29.8234C29.215 29.6939 29.4406 29.5061 29.615 29.2748C29.7894 29.0435 29.9078 28.7749 29.961 28.4902C30.0141 28.2054 30.0006 27.9122 29.9214 27.6336ZM8.7464 27.5211C6.6464 27.5211 4.9964 26.4211 4.9964 25.0211C4.9964 23.6211 6.6464 22.5211 8.7464 22.5211C10.8464 22.5211 12.4964 23.6211 12.4964 25.0211C12.4964 26.4211 10.8589 27.5211 8.7464 27.5211ZM21.2464 27.5211C19.1464 27.5211 17.4964 26.4211 17.4964 25.0211C17.4964 23.6211 19.1464 22.5211 21.2464 22.5211C23.3464 22.5211 24.9964 23.6211 24.9964 25.0211C24.9964 26.4211 23.3464 27.5211 21.2464 27.5211ZM11.2464 8.77106C11.2464 9.76562 11.6415 10.7194 12.3448 11.4227C13.048 12.126 14.0018 12.5211 14.9964 12.5211C15.991 12.5211 16.9448 12.126 17.6481 11.4227C18.3513 10.7194 18.7464 9.76562 18.7464 8.77106C18.7464 7.7765 18.3513 6.82267 17.6481 6.11941C16.9448 5.41615 15.991 5.02106 14.9964 5.02106C14.0018 5.02106 13.048 5.41615 12.3448 6.11941C11.6415 6.82267 11.2464 7.7765 11.2464 8.77106Z" fill="white"/>
<path d="M20.8589 18.1461C20.9655 18.144 21.07 18.1151 21.1626 18.0622C21.2552 18.0093 21.333 17.934 21.389 17.8432C21.445 17.7524 21.4773 17.649 21.4829 17.5425C21.4886 17.436 21.4674 17.3298 21.4214 17.2336C20.8516 16.01 19.9442 14.9745 18.8061 14.249C17.6679 13.5235 16.3462 13.1381 14.9964 13.1381C13.6466 13.1381 12.3249 13.5235 11.1868 14.249C10.0486 14.9745 9.14121 16.01 8.57141 17.2336C8.52537 17.3298 8.50422 17.436 8.50988 17.5425C8.51554 17.649 8.54784 17.7524 8.60381 17.8432C8.65978 17.934 8.73763 18.0093 8.83025 18.0622C8.92286 18.1151 9.02727 18.144 9.13391 18.1461H20.8589ZM22.7214 5.44607C22.627 5.42261 22.5398 5.37606 22.4678 5.31061C22.3958 5.24516 22.3412 5.16284 22.3089 5.07107C21.7523 3.58582 20.7569 2.30517 19.4549 1.39935C18.1529 0.493537 16.606 0.00547293 15.0199 4.57576e-05C13.4338 -0.00538141 11.8837 0.472085 10.5755 1.36897C9.26732 2.26585 8.26312 3.53967 7.69641 5.02107C7.65924 5.11344 7.60173 5.19625 7.52815 5.26334C7.45457 5.33043 7.36681 5.38007 7.27141 5.40857C6.54489 5.60882 5.91522 6.06487 5.49838 6.6927C5.08154 7.32053 4.90562 8.07784 5.00303 8.82513C5.10043 9.57242 5.4646 10.2593 6.02845 10.7593C6.5923 11.2593 7.31784 11.5387 8.07141 11.5461H9.32141C9.48717 11.5461 9.64614 11.4802 9.76335 11.363C9.88056 11.2458 9.94641 11.0868 9.94641 10.9211V6.27107C9.94981 6.10384 9.9837 5.93863 10.0464 5.78357C10.451 4.81775 11.1319 3.99303 12.0037 3.41301C12.8755 2.83299 13.8993 2.52354 14.9464 2.52354C15.9935 2.52354 17.0173 2.83299 17.8891 3.41301C18.7609 3.99303 19.4419 4.81775 19.8464 5.78357C19.9264 5.93529 19.9772 6.10063 19.9964 6.27107V10.9586C19.9964 11.1243 20.0623 11.2833 20.1795 11.4005C20.2967 11.5177 20.4556 11.5836 20.6214 11.5836H21.8714C22.6292 11.5882 23.363 11.3174 23.936 10.8214C24.5089 10.3253 24.8822 9.63801 24.9861 8.88732C25.0901 8.13663 24.9177 7.37374 24.5011 6.74068C24.0845 6.10762 23.452 5.64753 22.7214 5.44607Z" fill="white"/>
</svg>
