<svg width="23" height="23" viewBox="0 0 23 23" fill="none" xmlns="http://www.w3.org/2000/svg">
<path d="M16.25 0C17.9076 0 19.4973 0.65848 20.6694 1.83058C21.8415 3.00269 22.5 4.5924 22.5 6.25V16.25C22.5 17.9076 21.8415 19.4973 20.6694 20.6694C19.4973 21.8415 17.9076 22.5 16.25 22.5H6.25C4.5924 22.5 3.00269 21.8415 1.83058 20.6694C0.65848 19.4973 0 17.9076 0 16.25V6.25C0 4.5924 0.65848 3.00269 1.83058 1.83058C3.00269 0.65848 4.5924 0 6.25 0H16.25ZM11.25 6.25C9.92392 6.25 8.65215 6.77678 7.71447 7.71447C6.77678 8.65215 6.25 9.92392 6.25 11.25C6.25 12.5761 6.77678 13.8479 7.71447 14.7855C8.65215 15.7232 9.92392 16.25 11.25 16.25C12.5761 16.25 13.8479 15.7232 14.7855 14.7855C15.7232 13.8479 16.25 12.5761 16.25 11.25C16.25 9.92392 15.7232 8.65215 14.7855 7.71447C13.8479 6.77678 12.5761 6.25 11.25 6.25ZM11.25 8.75C11.913 8.75 12.5489 9.01339 13.0178 9.48223C13.4866 9.95107 13.75 10.587 13.75 11.25C13.75 11.913 13.4866 12.5489 13.0178 13.0178C12.5489 13.4866 11.913 13.75 11.25 13.75C10.587 13.75 9.95107 13.4866 9.48223 13.0178C9.01339 12.5489 8.75 11.913 8.75 11.25C8.75 10.587 9.01339 9.95107 9.48223 9.48223C9.95107 9.01339 10.587 8.75 11.25 8.75ZM16.875 4.375C16.5435 4.375 16.2255 4.5067 15.9911 4.74112C15.7567 4.97554 15.625 5.29348 15.625 5.625C15.625 5.95652 15.7567 6.27446 15.9911 6.50888C16.2255 6.7433 16.5435 6.875 16.875 6.875C17.2065 6.875 17.5245 6.7433 17.7589 6.50888C17.9933 6.27446 18.125 5.95652 18.125 5.625C18.125 5.29348 17.9933 4.97554 17.7589 4.74112C17.5245 4.5067 17.2065 4.375 16.875 4.375Z" fill="black"/>
</svg>
