<svg width="28" height="27" viewBox="0 0 28 27" fill="currentColor" xmlns="http://www.w3.org/2000/svg">
<path d="M24.5 0H3.5C2.57174 0 1.6815 0.355579 1.02513 0.988515C0.368749 1.62145 0 2.47989 0 3.375L0 23.625C0 24.5201 0.368749 25.3785 1.02513 26.0115C1.6815 26.6444 2.57174 27 3.5 27H24.5C25.4283 27 26.3185 26.6444 26.9749 26.0115C27.6313 25.3785 28 24.5201 28 23.625V3.375C28 2.47989 27.6313 1.62145 26.9749 0.988515C26.3185 0.355579 25.4283 0 24.5 0ZM1.75 6.50869C1.75 5.7105 2.534 5.0625 3.5 5.0625H24.5C25.466 5.0625 26.25 5.7105 26.25 6.50869V23.8663C26.25 24.6645 25.466 25.3125 24.5 25.3125H3.5C2.534 25.3125 1.75 24.6645 1.75 23.8663V6.50869Z" fill="white"/>
<path d="M11.5455 11.25C11.9794 11.25 12.3957 11.0788 12.7025 10.774C13.0094 10.4693 13.1818 10.056 13.1818 9.625C13.1818 9.19402 13.0094 8.7807 12.7025 8.47595C12.3957 8.17121 11.9794 8 11.5455 8C11.1115 8 10.6952 8.17121 10.3884 8.47595C10.0815 8.7807 9.90909 9.19402 9.90909 9.625C9.90909 10.056 10.0815 10.4693 10.3884 10.774C10.6952 11.0788 11.1115 11.25 11.5455 11.25ZM16.4545 11.25C16.8885 11.25 17.3048 11.0788 17.6116 10.774C17.9185 10.4693 18.0909 10.056 18.0909 9.625C18.0909 9.19402 17.9185 8.7807 17.6116 8.47595C17.3048 8.17121 16.8885 8 16.4545 8C16.0206 8 15.6043 8.17121 15.2975 8.47595C14.9906 8.7807 14.8182 9.19402 14.8182 9.625C14.8182 10.056 14.9906 10.4693 15.2975 10.774C15.6043 11.0788 16.0206 11.25 16.4545 11.25ZM21.3636 11.25C21.7976 11.25 22.2138 11.0788 22.5207 10.774C22.8276 10.4693 23 10.056 23 9.625C23 9.19402 22.8276 8.7807 22.5207 8.47595C22.2138 8.17121 21.7976 8 21.3636 8C20.9296 8 20.5134 8.17121 20.2066 8.47595C19.8997 8.7807 19.7273 9.19402 19.7273 9.625C19.7273 10.056 19.8997 10.4693 20.2066 10.774C20.5134 11.0788 20.9296 11.25 21.3636 11.25ZM6.63636 16.125C7.07035 16.125 7.48657 15.9538 7.79345 15.649C8.10032 15.3443 8.27273 14.931 8.27273 14.5C8.27273 14.069 8.10032 13.6557 7.79345 13.351C7.48657 13.0462 7.07035 12.875 6.63636 12.875C6.20237 12.875 5.78616 13.0462 5.47928 13.351C5.1724 13.6557 5 14.069 5 14.5C5 14.931 5.1724 15.3443 5.47928 15.649C5.78616 15.9538 6.20237 16.125 6.63636 16.125ZM11.5455 16.125C11.9794 16.125 12.3957 15.9538 12.7025 15.649C13.0094 15.3443 13.1818 14.931 13.1818 14.5C13.1818 14.069 13.0094 13.6557 12.7025 13.351C12.3957 13.0462 11.9794 12.875 11.5455 12.875C11.1115 12.875 10.6952 13.0462 10.3884 13.351C10.0815 13.6557 9.90909 14.069 9.90909 14.5C9.90909 14.931 10.0815 15.3443 10.3884 15.649C10.6952 15.9538 11.1115 16.125 11.5455 16.125ZM16.4545 16.125C16.8885 16.125 17.3048 15.9538 17.6116 15.649C17.9185 15.3443 18.0909 14.931 18.0909 14.5C18.0909 14.069 17.9185 13.6557 17.6116 13.351C17.3048 13.0462 16.8885 12.875 16.4545 12.875C16.0206 12.875 15.6043 13.0462 15.2975 13.351C14.9906 13.6557 14.8182 14.069 14.8182 14.5C14.8182 14.931 14.9906 15.3443 15.2975 15.649C15.6043 15.9538 16.0206 16.125 16.4545 16.125ZM21.3636 16.125C21.7976 16.125 22.2138 15.9538 22.5207 15.649C22.8276 15.3443 23 14.931 23 14.5C23 14.069 22.8276 13.6557 22.5207 13.351C22.2138 13.0462 21.7976 12.875 21.3636 12.875C20.9296 12.875 20.5134 13.0462 20.2066 13.351C19.8997 13.6557 19.7273 14.069 19.7273 14.5C19.7273 14.931 19.8997 15.3443 20.2066 15.649C20.5134 15.9538 20.9296 16.125 21.3636 16.125ZM6.63636 21C7.07035 21 7.48657 20.8288 7.79345 20.524C8.10032 20.2193 8.27273 19.806 8.27273 19.375C8.27273 18.944 8.10032 18.5307 7.79345 18.226C7.48657 17.9212 7.07035 17.75 6.63636 17.75C6.20237 17.75 5.78616 17.9212 5.47928 18.226C5.1724 18.5307 5 18.944 5 19.375C5 19.806 5.1724 20.2193 5.47928 20.524C5.78616 20.8288 6.20237 21 6.63636 21ZM11.5455 21C11.9794 21 12.3957 20.8288 12.7025 20.524C13.0094 20.2193 13.1818 19.806 13.1818 19.375C13.1818 18.944 13.0094 18.5307 12.7025 18.226C12.3957 17.9212 11.9794 17.75 11.5455 17.75C11.1115 17.75 10.6952 17.9212 10.3884 18.226C10.0815 18.5307 9.90909 18.944 9.90909 19.375C9.90909 19.806 10.0815 20.2193 10.3884 20.524C10.6952 20.8288 11.1115 21 11.5455 21ZM16.4545 21C16.8885 21 17.3048 20.8288 17.6116 20.524C17.9185 20.2193 18.0909 19.806 18.0909 19.375C18.0909 18.944 17.9185 18.5307 17.6116 18.226C17.3048 17.9212 16.8885 17.75 16.4545 17.75C16.0206 17.75 15.6043 17.9212 15.2975 18.226C14.9906 18.5307 14.8182 18.944 14.8182 19.375C14.8182 19.806 14.9906 20.2193 15.2975 20.524C15.6043 20.8288 16.0206 21 16.4545 21Z" fill="white"/>
</svg>
