<svg width="30" height="30" viewBox="0 0 30 30" fill="none" xmlns="http://www.w3.org/2000/svg">
<path d="M28.125 9.925C28.123 9.78601 28.1674 9.65033 28.2512 9.5394C28.3349 9.42847 28.4533 9.34863 28.5875 9.3125C28.9917 9.21186 29.3505 8.97861 29.6066 8.65004C29.8626 8.32148 30.0012 7.91656 30 7.5V2.5C30 1.83696 29.7366 1.20107 29.2678 0.732233C28.7989 0.263392 28.163 0 27.5 0L2.50001 0C1.83697 0 1.20108 0.263392 0.73224 0.732233C0.263399 1.20107 7.20311e-06 1.83696 7.20311e-06 2.5V7.5C-0.00115089 7.91656 0.137367 8.32148 0.393423 8.65004C0.649479 8.97861 1.00829 9.21186 1.41251 9.3125C1.54673 9.34863 1.66508 9.42847 1.74885 9.5394C1.83261 9.65033 1.877 9.78601 1.87501 9.925V26.875C1.87501 27.0408 1.80916 27.1997 1.69195 27.3169C1.57474 27.4342 1.41577 27.5 1.25001 27.5C0.918486 27.5 0.600544 27.6317 0.366124 27.8661C0.131703 28.1005 7.20311e-06 28.4185 7.20311e-06 28.75C7.20311e-06 29.0815 0.131703 29.3995 0.366124 29.6339C0.600544 29.8683 0.918486 30 1.25001 30H28.75C29.0815 30 29.3995 29.8683 29.6339 29.6339C29.8683 29.3995 30 29.0815 30 28.75C30 28.4185 29.8683 28.1005 29.6339 27.8661C29.3995 27.6317 29.0815 27.5 28.75 27.5C28.5842 27.5 28.4253 27.4342 28.3081 27.3169C28.1908 27.1997 28.125 27.0408 28.125 26.875V9.925ZM3.12501 6.875C2.95925 6.875 2.80027 6.80915 2.68306 6.69194C2.56585 6.57473 2.50001 6.41576 2.50001 6.25V4.325C2.50082 4.26258 2.5203 4.20184 2.55595 4.1506C2.59159 4.09936 2.64177 4.05997 2.70001 4.0375C2.76023 4.01411 2.82623 4.00997 2.88891 4.02564C2.95159 4.04131 3.00787 4.07602 3.05001 4.125L5 6.3625C5.03279 6.41035 5.05033 6.467 5.05033 6.525C5.05033 6.583 5.03279 6.63965 5 6.6875C4.97561 6.7434 4.93539 6.79094 4.8843 6.82425C4.83322 6.85757 4.7735 6.87521 4.7125 6.875H3.12501ZM5.3875 3.0125C5.3577 2.96354 5.34193 2.90732 5.34193 2.85C5.34193 2.79268 5.3577 2.73646 5.3875 2.6875C5.40797 2.63869 5.44051 2.59588 5.48205 2.56309C5.52359 2.53029 5.57278 2.50858 5.625 2.5H11.425C11.4878 2.49903 11.5494 2.51781 11.601 2.55369C11.6525 2.58958 11.6916 2.64075 11.7125 2.7C11.7383 2.75678 11.7449 2.82041 11.7314 2.88128C11.7179 2.94216 11.6849 2.99699 11.6375 3.0375L8.75 5.85C8.69078 5.91174 8.61854 5.95948 8.53853 5.98976C8.45852 6.02003 8.37276 6.03207 8.2875 6.025C8.12 6.0122 7.96362 5.93624 7.85 5.8125L5.3875 3.0125ZM14.5625 3.75C14.6822 3.64108 14.8382 3.58072 15 3.58072C15.1618 3.58072 15.3178 3.64108 15.4375 3.75L18.1875 6.3875C18.2349 6.42801 18.2679 6.48284 18.2814 6.54372C18.2949 6.6046 18.2883 6.66822 18.2625 6.725C18.24 6.78324 18.2006 6.83341 18.1494 6.86906C18.0982 6.90471 18.0374 6.92419 17.975 6.925H12.025C11.9626 6.92419 11.9018 6.90471 11.8506 6.86906C11.7994 6.83341 11.76 6.78324 11.7375 6.725C11.7117 6.66822 11.7051 6.6046 11.7186 6.54372C11.7321 6.48284 11.7651 6.42801 11.8125 6.3875L14.5625 3.75ZM18.3125 3.0875C18.2651 3.04699 18.2321 2.99216 18.2186 2.93128C18.2051 2.8704 18.2117 2.80678 18.2375 2.75C18.2498 2.67245 18.2921 2.60283 18.3552 2.55609C18.4183 2.50934 18.4972 2.48921 18.575 2.5H24.375C24.4338 2.50217 24.4909 2.52092 24.5395 2.55409C24.5882 2.58727 24.6265 2.63351 24.65 2.6875C24.6798 2.73646 24.6956 2.79268 24.6956 2.85C24.6956 2.90732 24.6798 2.96354 24.65 3.0125L22.2125 5.8125C22.0989 5.93624 21.9425 6.0122 21.775 6.025C21.6897 6.03207 21.604 6.02003 21.524 5.98976C21.444 5.95948 21.3717 5.91174 21.3125 5.85L18.3125 3.0875ZM26.9 4.175C26.9421 4.12602 26.9984 4.09131 27.0611 4.07564C27.1238 4.05997 27.1898 4.06412 27.25 4.0875C27.3082 4.10997 27.3584 4.14936 27.3941 4.2006C27.4297 4.25184 27.4492 4.31258 27.45 4.375V6.25C27.45 6.41576 27.3841 6.57473 27.2669 6.69194C27.1497 6.80915 26.9908 6.875 26.825 6.875H25.275C25.2161 6.87283 25.1591 6.85408 25.1105 6.82091C25.0618 6.78773 25.0235 6.74149 25 6.6875C24.9672 6.63965 24.9497 6.583 24.9497 6.525C24.9497 6.467 24.9672 6.41035 25 6.3625L26.9 4.175ZM15.175 25.425C15.2862 25.3291 15.4282 25.2763 15.575 25.2763C15.7218 25.2763 15.8638 25.3291 15.975 25.425L17.8375 26.975C17.8865 27.0171 17.9212 27.0734 17.9369 27.1361C17.9525 27.1988 17.9484 27.2648 17.925 27.325C17.9025 27.3832 17.8631 27.4334 17.8119 27.4691C17.7607 27.5047 17.6999 27.5242 17.6375 27.525H13.5125C13.4501 27.5242 13.3893 27.5047 13.3381 27.4691C13.2869 27.4334 13.2475 27.3832 13.225 27.325C13.2016 27.2648 13.1975 27.1988 13.2131 27.1361C13.2288 27.0734 13.2635 27.0171 13.3125 26.975L15.175 25.425ZM20.8125 27.5C20.7606 27.5018 20.7091 27.49 20.6631 27.4659C20.6171 27.4418 20.5781 27.4062 20.55 27.3625C20.5224 27.3173 20.5078 27.2654 20.5078 27.2125C20.5078 27.1596 20.5224 27.1077 20.55 27.0625C20.6583 26.8138 20.6827 26.5366 20.6195 26.2727C20.5564 26.0089 20.4091 25.7728 20.2 25.6L17.125 23.0375C17.0546 22.98 16.9979 22.9075 16.959 22.8254C16.92 22.7432 16.8999 22.6534 16.9 22.5625V19.35C16.8985 19.3025 16.9079 19.2553 16.9274 19.212C16.9469 19.1687 16.976 19.1304 17.0125 19.1C17.054 19.0825 17.0987 19.0734 17.1437 19.0734C17.1888 19.0734 17.2335 19.0825 17.275 19.1H17.525C17.7558 19.0993 17.982 19.0347 18.1783 18.9133C18.3747 18.792 18.5336 18.6186 18.6375 18.4125C18.7858 18.1173 18.8111 17.7754 18.7081 17.4615C18.605 17.1477 18.3819 16.8874 18.0875 16.7375L15 15.175C14.8968 15.1277 14.8091 15.0521 14.7471 14.9569C14.6852 14.8618 14.6515 14.751 14.65 14.6375C14.6401 14.0819 14.4658 13.5417 14.1491 13.085C13.8324 12.6284 13.3876 12.2758 12.8707 12.0717C12.3538 11.8677 11.7881 11.8213 11.2449 11.9385C10.7017 12.0557 10.2054 12.3311 9.81859 12.7301C9.4318 13.1291 9.17187 13.6337 9.07161 14.1803C8.97135 14.7269 9.03525 15.2909 9.25525 15.8012C9.47525 16.3115 9.84149 16.7452 10.3077 17.0475C10.774 17.3499 11.3194 17.5073 11.875 17.5C12.2799 17.5003 12.6803 17.4151 13.05 17.25C13.1331 17.2072 13.2253 17.1849 13.3188 17.1849C13.4122 17.1849 13.5044 17.2072 13.5875 17.25L14.025 17.475C14.1302 17.5265 14.2188 17.6066 14.2807 17.7061C14.3425 17.8055 14.3752 17.9204 14.375 18.0375V22.5625C14.3751 22.6534 14.355 22.7432 14.316 22.8254C14.2771 22.9075 14.2204 22.98 14.15 23.0375L11.075 25.6C10.8659 25.7728 10.7186 26.0089 10.6555 26.2727C10.5923 26.5366 10.6167 26.8138 10.725 27.0625C10.7526 27.1077 10.7672 27.1596 10.7672 27.2125C10.7672 27.2654 10.7526 27.3173 10.725 27.3625C10.6969 27.4062 10.6579 27.4418 10.6119 27.4659C10.5659 27.49 10.5144 27.5018 10.4625 27.5H5C4.83424 27.5 4.67527 27.4342 4.55806 27.3169C4.44085 27.1997 4.37501 27.0408 4.37501 26.875V10C4.37501 9.83424 4.44085 9.67527 4.55806 9.55806C4.67527 9.44085 4.83424 9.375 5 9.375H25C25.1658 9.375 25.3247 9.44085 25.4419 9.55806C25.5591 9.67527 25.625 9.83424 25.625 10V26.875C25.625 27.0408 25.5591 27.1997 25.4419 27.3169C25.3247 27.4342 25.1658 27.5 25 27.5H20.8125Z" fill="white"/>
</svg>
