<svg width="30" height="30" viewBox="0 0 30 30" fill="none" xmlns="http://www.w3.org/2000/svg">
<path d="M16.0136 0.653981C15.9412 0.463162 15.8046 0.297547 15.6228 0.180291C15.4411 0.0630347 15.2233 0 15 0C14.7767 0 14.5589 0.0630347 14.3772 0.180291C14.1954 0.297547 14.0588 0.463162 13.9864 0.653981L12.7586 3.87244H2.14286C1.57454 3.87244 1.02949 4.07634 0.627628 4.43928C0.225765 4.80223 0 5.29449 0 5.80777V19.3551C0 19.8684 0.225765 20.3606 0.627628 20.7236C1.02949 21.0865 1.57454 21.2904 2.14286 21.2904H6.10714L3.27214 28.7163C3.17951 28.9591 3.19745 29.2252 3.32203 29.456C3.44661 29.6868 3.66761 29.8635 3.93643 29.9472C4.20524 30.0308 4.49985 30.0146 4.75543 29.9021C5.01102 29.7896 5.20665 29.59 5.29929 29.3472L8.37429 21.2904H13.9286V26.1288C13.9286 26.3854 14.0415 26.6315 14.2424 26.813C14.4433 26.9945 14.7158 27.0964 15 27.0964C15.2842 27.0964 15.5567 26.9945 15.7576 26.813C15.9585 26.6315 16.0714 26.3854 16.0714 26.1288V21.2904H21.6257L24.7007 29.3472C24.7934 29.59 24.989 29.7896 25.2446 29.9021C25.5001 30.0146 25.7948 30.0308 26.0636 29.9472C26.3324 29.8635 26.5534 29.6868 26.678 29.456C26.8025 29.2252 26.8205 28.9591 26.7279 28.7163L23.8929 21.2904H27.8571C28.4255 21.2904 28.9705 21.0865 29.3724 20.7236C29.7742 20.3606 30 19.8684 30 19.3551V5.80777C30 5.29449 29.7742 4.80223 29.3724 4.43928C28.9705 4.07634 28.4255 3.87244 27.8571 3.87244H17.2414L16.0136 0.653981Z" fill="white"/>
</svg>
