<svg width="30" height="27" viewBox="0 0 30 27" fill="none" xmlns="http://www.w3.org/2000/svg">
<path fill-rule="evenodd" clip-rule="evenodd" d="M3 6.74953C3.00022 5.45051 3.66677 4.17911 4.91968 3.08789C6.17259 1.99668 7.95864 1.132 10.0635 0.597618C12.1684 0.0632335 14.5027 -0.118159 16.7863 0.0752069C19.0699 0.268573 21.2058 0.828482 22.9377 1.68775C24.6696 2.54702 25.924 3.66915 26.5503 4.91949C27.1766 6.16982 27.1482 7.49526 26.4685 8.73675C25.7889 9.97825 24.4869 11.0831 22.7187 11.9186C20.9505 12.7542 18.7912 13.285 16.5 13.4474V22.7812C16.5 23.0049 16.342 23.2196 16.0607 23.3778C15.7794 23.536 15.3978 23.6249 15 23.6249C14.6022 23.6249 14.2206 23.536 13.9393 23.3778C13.658 23.2196 13.5 23.0049 13.5 22.7812V13.4491C10.5989 13.2435 7.93106 12.4491 5.99764 11.2152C4.06422 9.98123 2.99827 8.39434 3 6.74953ZM10.479 21.2185C10.5441 21.4391 10.4507 21.6653 10.2195 21.8472C9.98833 22.0292 9.63817 22.152 9.246 22.1888C7.11 22.388 5.406 22.6866 4.281 23.0208C3.86713 23.132 3.49137 23.2834 3.171 23.468C3.09835 23.5125 3.04044 23.5639 3 23.6199V23.6249L3.006 23.6384L3.054 23.6941C3.17161 23.7921 3.31883 23.8778 3.489 23.9472C3.984 24.1666 4.794 24.4029 5.928 24.6138C8.181 25.0357 11.388 25.3125 15 25.3125C18.612 25.3125 21.819 25.0374 24.072 24.6138C25.206 24.4012 26.016 24.1666 26.511 23.9472C26.6822 23.878 26.8305 23.7923 26.949 23.6941L26.994 23.6384L27 23.6249V23.6182C26.9596 23.5622 26.9017 23.5108 26.829 23.4663C26.5084 23.2823 26.1326 23.1315 25.719 23.0208C24.591 22.6866 22.89 22.388 20.754 22.1888C20.555 22.1737 20.3635 22.1362 20.1908 22.0786C20.018 22.021 19.8676 21.9445 19.7484 21.8536C19.6292 21.7628 19.5436 21.6593 19.4968 21.5495C19.45 21.4397 19.4428 21.3257 19.4757 21.2143C19.5087 21.1028 19.5811 20.9963 19.6886 20.9009C19.7961 20.8055 19.9366 20.7232 20.1016 20.6589C20.2667 20.5947 20.4531 20.5497 20.6497 20.5266C20.8462 20.5036 21.049 20.503 21.246 20.5249C23.556 20.7392 25.602 21.0784 27.117 21.5273C28.5 21.9374 30 22.6124 30 23.6249C30 24.3438 29.22 24.894 28.368 25.2736C27.498 25.6584 26.328 25.9706 25.02 26.2153C22.386 26.7097 18.843 27 15 27C11.157 27 7.614 26.7097 4.98 26.2153C3.672 25.9706 2.502 25.6584 1.632 25.2736C0.78 24.894 0 24.3438 0 23.6249C0 22.6141 1.5 21.9374 2.883 21.5273C4.398 21.0784 6.444 20.7392 8.754 20.5249C9.14623 20.4883 9.54824 20.5408 9.8717 20.6709C10.1952 20.8009 10.4136 20.9979 10.479 21.2185Z" fill="white"/>
</svg>
