<svg width="35" height="30" viewBox="0 0 35 30" fill="none" xmlns="http://www.w3.org/2000/svg">
<path d="M4.08032 21.9192C6.36114 24.0394 9.98749 26.7645 13.1653 26.2477C13.499 26.1948 13.8272 26.1008 14.1499 25.9834C13.6467 25.261 13.2036 24.5503 12.8262 23.9043C11.6284 21.8487 11.251 19.4877 11.4096 17.2324C10.2829 17.4732 9.2655 17.9959 8.41772 18.7242C8.06219 19.0296 7.52617 18.8005 7.60821 18.313C7.95827 16.3455 9.41318 14.7363 11.3385 14.4192C11.4807 14.3957 11.6284 14.378 11.7706 14.3722L12.8317 6.66074C12.9411 5.85025 13.2693 4.74022 14.1991 3.96497C15.2164 3.12511 16.9831 2.17366 19.8656 1.89175L19.7343 1.76842C18.6295 0.852206 15.7743 -0.67481 9.61009 0.329497C3.44584 1.3338 1.12126 3.70068 0.311755 4.92816C-1.23103e-05 5.39802 -0.0437692 5.9912 0.0328053 6.56677L1.35645 16.2163C1.65728 18.407 2.53242 20.4802 4.08032 21.925V21.9192ZM8.87716 9.02174C9.11783 8.83967 9.46788 8.90428 9.52258 9.21555C9.52805 9.24492 9.53351 9.28016 9.53898 9.30952C9.71401 10.5899 8.90451 11.7762 7.72854 11.9701C6.55258 12.1639 5.45866 11.277 5.28363 10.0026C5.27816 9.97319 5.27816 9.93795 5.27269 9.90858C5.23987 9.59144 5.55711 9.41524 5.83606 9.51508C6.32832 9.69128 6.86435 9.74414 7.40584 9.65604C7.94733 9.56794 8.45053 9.34476 8.87169 9.02174H8.87716ZM14.3085 22.9058C15.9165 25.6603 18.6568 29.4192 21.8347 29.936C25.0125 30.4528 28.6443 27.7336 30.9197 25.6075C32.4676 24.1686 33.3427 22.0953 33.6435 19.8988L34.9672 10.2492C35.0438 9.67366 35 9.08047 34.6882 8.61062C33.8787 7.38314 31.5542 5.01626 25.3899 4.01195C19.2257 3.00765 16.376 4.53466 15.2711 5.45087C14.8445 5.80326 14.6421 6.35534 14.5656 6.9309L13.2419 16.5805C12.9411 18.7712 13.22 21.0323 14.314 22.9058H14.3085ZM22.1246 13.8201C21.7034 13.4971 21.2057 13.2739 20.6587 13.1858C20.1117 13.0977 19.5757 13.1506 19.0889 13.3268C18.81 13.4266 18.4927 13.2504 18.5256 12.9333C18.531 12.9039 18.531 12.8686 18.5365 12.8393C18.7115 11.5589 19.8054 10.678 20.9814 10.8718C22.1574 11.0656 22.9669 12.252 22.7918 13.5323C22.7864 13.5617 22.7809 13.5969 22.7754 13.6263C22.7207 13.9376 22.3707 14.0022 22.13 13.8201H22.1246ZM29.5742 14.7304C29.5195 15.0417 29.1694 15.1063 28.9287 14.9242C28.5076 14.6012 28.0099 14.378 27.4629 14.2899C26.9159 14.2018 26.3799 14.2547 25.8931 14.4309C25.6142 14.5307 25.2969 14.3546 25.3297 14.0374C25.3352 14.008 25.3352 13.9728 25.3407 13.9434C25.5157 12.6631 26.6096 11.7821 27.7856 11.9759C28.9616 12.1697 29.7711 13.3561 29.596 14.6365C29.5906 14.6658 29.5851 14.7011 29.5796 14.7304H29.5742ZM28.9889 20.5683C27.9169 23.1936 25.3352 24.8264 22.6004 24.38C19.8656 23.9336 17.8364 21.5491 17.5137 18.7007C17.459 18.2132 18.0005 17.99 18.3451 18.3072C19.6523 19.5288 21.2768 20.3804 23.1036 20.674C24.9305 20.9677 26.719 20.6799 28.2943 19.9223C28.71 19.7226 29.1694 20.1102 28.9834 20.5625L28.9889 20.5683Z" fill="white"/>
</svg>
