<svg width="20" height="20" viewBox="0 0 20 20" fill="none" xmlns="http://www.w3.org/2000/svg">
<path d="M10.0002 3.66405L9.1039 2.68139C7.00008 0.37473 3.14246 1.17073 1.74992 4.07072C1.09615 5.43471 0.948648 7.40404 2.14243 9.91737C3.29247 12.3374 5.68504 15.236 10.0002 18.3933C14.3153 15.236 16.7066 12.3374 17.8579 9.91737C19.0517 7.40271 18.9054 5.43471 18.2504 4.07072C16.8579 1.17073 13.0003 0.373397 10.8965 2.68006L10.0002 3.66405ZM10.0002 20C-9.16666 6.49071 4.09874 -4.05326 9.78017 1.52406C9.85517 1.59784 9.9285 1.67384 10.0002 1.75206C10.0706 1.67334 10.144 1.59773 10.2202 1.52539C15.9004 -4.05592 29.167 6.48938 10.0002 20Z" fill="#FF3305"/>
</svg>
