<svg width="11" height="16" viewBox="0 0 11 16" fill="none" xmlns="http://www.w3.org/2000/svg">
<path d="M5.5 14.5C8.27778 10.7308 10.5 7.5 10.5 5.34615C10.5 4.06087 9.97322 2.82824 9.03553 1.91941C8.09785 1.01058 6.82608 0.5 5.5 0.5C4.17392 0.5 2.90215 1.01058 1.96447 1.91941C1.02678 2.82824 0.5 4.06087 0.5 5.34615C0.5 7.5 2.72222 10.7308 5.5 14.5Z" stroke="#2D3436"/>
<path d="M7.72228 5.34615C7.72228 5.91739 7.48815 6.46523 7.0714 6.86915C6.65465 7.27308 6.08942 7.5 5.50005 7.5C4.91068 7.5 4.34545 7.27308 3.92871 6.86915C3.51196 6.46523 3.27783 5.91739 3.27783 5.34615C3.27783 4.77492 3.51196 4.22708 3.92871 3.82315C4.34545 3.41923 4.91068 3.19231 5.50005 3.19231C6.08942 3.19231 6.65465 3.41923 7.0714 3.82315C7.48815 4.22708 7.72228 4.77492 7.72228 5.34615Z" stroke="#2D3436"/>
</svg>
