<svg width="15" height="15" viewBox="0 0 15 15" fill="none" xmlns="http://www.w3.org/2000/svg">
<path d="M5.36099 0L4.70516 5.26053H6.14462L7.79596 0.305605L5.36099 0ZM8.44507 0.270447L6.78363 5.26053L11.8184 5.26391L12.972 1.79509L8.44507 0.270447ZM4.67489 0.630141L2.25673 0.895179L2.73094 5.26053H4.09978L4.67489 0.630141ZM0.773543 4.24635C0.386771 4.24635 0.128475 4.54385 0.0581838 4.82782C0.0232063 4.9698 0.0430493 5.08474 0.0827354 5.14897C0.122085 5.20982 0.17657 5.26053 0.369955 5.26053H2.1222L2.01121 4.24635H0.773543ZM12.7937 4.24635L12.4574 5.26053H14.0549C13.9675 5.0915 13.9305 4.91233 13.954 4.73316C13.9776 4.55737 14.0448 4.39848 14.1323 4.24635H12.7937ZM0 5.86904V14.2157C0 14.3881 0.093834 14.5909 0.24787 14.7465C0.402242 14.902 0.605381 14.9966 0.773543 14.9966L13.6883 15C13.8565 15 14.0583 14.9053 14.213 14.7498C14.3677 14.5943 14.4619 14.3915 14.4619 14.2191V11.8189H11.5359C10.0561 11.8189 10.0561 9.04679 11.5359 9.04679H14.4619V5.87242L0 5.86904ZM11.5359 9.65529C10.8632 9.65529 10.8632 11.2104 11.5359 11.2104H12.2859C11.9832 11.0819 11.7713 10.781 11.7713 10.4328C11.7713 10.0846 11.9832 9.78375 12.2859 9.65529H11.5359ZM12.9383 9.65529C13.241 9.78375 13.4529 10.0846 13.4529 10.4328C13.4529 10.781 13.241 11.0819 12.9383 11.2104H15V9.65529H12.9383ZM12.6121 10.1962C12.4776 10.1962 12.3767 10.2976 12.3767 10.4328C12.3767 10.5681 12.4776 10.6695 12.6121 10.6695C12.7466 10.6695 12.8475 10.5681 12.8475 10.4328C12.8475 10.2976 12.7466 10.1962 12.6121 10.1962Z" fill="#FF3305"/>
</svg>
